HIERARCHY
ROOT root
{
	OFFSET	0	13.1	24.9
	CHANNELS 6  Xposition Yposition Zposition Xrotation Yrotation Zrotation
	JOINT spine_1
	{
		OFFSET	0	9.99999	0
		CHANNELS 3  Xrotation Yrotation Zrotation
		JOINT spine_2
		{
			OFFSET	0	112	-10
			CHANNELS 3  Xrotation Yrotation Zrotation
			JOINT spine_3
			{
				OFFSET	0	206.5	19.3
				CHANNELS 3  Xrotation Yrotation Zrotation
				JOINT spine_4
				{
					OFFSET	0	110.4	14.6
					CHANNELS 3  Xrotation Yrotation Zrotation
					JOINT neck_1
					{
						OFFSET	0	71.8	-50.3
						CHANNELS 3  Xrotation Yrotation Zrotation
						JOINT neck_2
						{
							OFFSET	0	86.2	-25.8
							CHANNELS 3  Xrotation Yrotation Zrotation
							JOINT head_ee
							{
								OFFSET	0	179.8	-8.7
								CHANNELS 3  Xrotation Yrotation Zrotation
								End Site
								{
									OFFSET	1	0	0
								}
							}
						}
					}
					JOINT left_clavicle
					{
						OFFSET	-43.2	22.4	-70.8
						CHANNELS 3  Xrotation Yrotation Zrotation
						JOINT left_shoulder
						{
							OFFSET	-93.9	-5.79999	48.7
							CHANNELS 3  Xrotation Yrotation Zrotation
							JOINT left_elbow
							{
								OFFSET	-291.4	-30.8	15.2
								CHANNELS 3  Xrotation Yrotation Zrotation
								JOINT left_lowarm_twist
								{
									OFFSET	-110.7	-3.89999	13.6
									CHANNELS 3  Xrotation Yrotation Zrotation
									JOINT left_hand
									{
										OFFSET	-110.7	-3.89999	13.6
										CHANNELS 3  Xrotation Yrotation Zrotation
										JOINT left_ee
										{
											OFFSET	-80.8	-5.10001	12.1
											CHANNELS 3  Xrotation Yrotation Zrotation
											End Site
											{
												OFFSET	1	0	0
											}
										}
									}
								}
							}
						}
					}
					JOINT right_clavicle
					{
						OFFSET	43.2	22.4	-70.8
						CHANNELS 3  Xrotation Yrotation Zrotation
						JOINT right_shoulder
						{
							OFFSET	93.9	-5.79999	48.7
							CHANNELS 3  Xrotation Yrotation Zrotation
							JOINT right_elbow
							{
								OFFSET	291.4	-30.8	15.2
								CHANNELS 3  Xrotation Yrotation Zrotation
								JOINT right_lowarm_twist
								{
									OFFSET	110.7	-3.89999	13.6
									CHANNELS 3  Xrotation Yrotation Zrotation
									JOINT right_hand
									{
										OFFSET	110.7	-3.89999	13.6
										CHANNELS 3  Xrotation Yrotation Zrotation
										JOINT right_ee
										{
											OFFSET	80.8	-5.10001	12.1
											CHANNELS 3  Xrotation Yrotation Zrotation
											End Site
											{
												OFFSET	1	0	0
											}
										}
									}
								}
							}
						}
					}
				}
			}
		}
	}
	JOINT left_hip
	{
		OFFSET	-82.8	-127.5	0.300001
		CHANNELS 3  Xrotation Yrotation Zrotation
		JOINT left_knee
		{
			OFFSET	-28.2	-396.7	2.2
			CHANNELS 3  Xrotation Yrotation Zrotation
			JOINT left_ankle
			{
				OFFSET	-11.7	-411.3	35.4
				CHANNELS 3  Xrotation Yrotation Zrotation
				JOINT left_toes
				{
					OFFSET	0	-60	-88.6
					CHANNELS 3  Xrotation Yrotation Zrotation
					JOINT left_foot_ee
					{
						OFFSET	-22.5	-16.5	-42.2
						CHANNELS 3  Xrotation Yrotation Zrotation
						End Site
						{
							OFFSET	1	0	0
						}
					}
				}
			}
		}
	}
	JOINT right_hip
	{
		OFFSET	82.8	-127.5	0.300001
		CHANNELS 3  Xrotation Yrotation Zrotation
		JOINT right_knee
		{
			OFFSET	28.2	-396.7	2.2
			CHANNELS 3  Xrotation Yrotation Zrotation
			JOINT right_ankle
			{
				OFFSET	11.7	-411.3	35.4
				CHANNELS 3  Xrotation Yrotation Zrotation
				JOINT right_toes
				{
					OFFSET	0	-60	-88.6
					CHANNELS 3  Xrotation Yrotation Zrotation
					JOINT right_foot_ee
					{
						OFFSET	22.5	-16.5	-42.2
						CHANNELS 3  Xrotation Yrotation Zrotation
						End Site
						{
							OFFSET	1	0	0
						}
					}
				}
			}
		}
	}
}
MOTION
Frames: 14
Frame Time: 0.02
1372.05 701.618 -1475.22 -5.32352665175 75.1587991694 8.67860247586 -0.590745 -0.275694 -1.95175 -0.588638 -0.150965 -1.96533 -0.58203 0.28538 -1.95035 -0.587338 -0.0261618 -1.97094 -20.0546 4.1285 5.51746 -20.0038 5.16415 6.84299 -0.0 0.0 -0.0 7.69126 -2.68213 14.983 3.51014 -27.2792 53.0691 3.12105 -57.0931 1.69817 27.9173 0.126015 -3.52891 -0.174167 -9.98147 -5.42382 -0.0 0.0 -0.0 8.52097 -9.89316 -16.1352 -29.9687 19.0719 -54.4585 0.400531 11.2226 -0.0393522 46.8654 0.753655 5.77465 7.93561 20.0161 -49.0987 0.0 0.0 0.0 -18.6612 32.4631 -1.58438 -4.20377 0.150112 0.627544 30.6684 -29.1828 -4.84063 -0.554032 0.0 0.0 -0.0 0.0 -0.0 33.8108 21.8996 -11.4971 -8.53541 -0.256202 -1.28366 -7.46584 3.38281 -1.1338 -1.22885 0.0 0.0 0.0 0.0 0.0 
1337.38629536 698.912 -1487.32707448 -6.10861320194 77.0350923442 9.42240030426 -0.753998 -0.230194 -2.31819 -0.751012 -0.0822562 -2.32813 -0.745657 0.438921 -2.28788 -0.752955 0.0721867 -2.32846 -17.2401 3.94775 6.27475 -17.1456 4.09686 7.31921 -0.0 0.0 -0.0 6.60125 -2.70352 12.7713 3.07553 -25.5517 56.8276 2.82682 -54.4583 1.45482 28.0158 0.123406 -3.54123 -0.628966 -2.79004 -5.41336 -0.0 0.0 -0.0 8.8278 -8.06057 -16.8402 -27.6207 18.3989 -55.9187 0.224199 6.33755 -0.0124121 46.5192 0.731041 5.73654 5.95589 12.9641 -36.914 0.0 0.0 0.0 -18.0858 29.0224 -3.16692 -7.48557 0.235051 1.12395 27.6544 -30.108 -4.51163 -3.6785 0.0 0.0 -0.0 0.0 -0.0 34.9342 21.9294 -12.9009 -13.5398 -0.316655 -2.04891 -6.21465 -9.78937 -0.921328 4.05711 -0.0 -0.0 0.0 0.0 0.0 
1337.55872311 698.912 -1487.80989638 -5.76039481883 76.2393409943 9.06450067658 -0.753998 -0.230194 -2.31819 -0.751012 -0.0822562 -2.32813 -0.745657 0.438921 -2.28788 -0.752955 0.0721867 -2.32846 -17.2401 3.94775 6.27475 -17.1456 4.09686 7.31921 -0.0 0.0 -0.0 6.60125 -2.70352 12.7713 3.07553 -25.5517 56.8276 2.82682 -54.4583 1.45482 28.0158 0.123406 -3.54123 -0.628966 -2.79004 -5.41336 -0.0 0.0 -0.0 8.8278 -8.06057 -16.8402 -27.6207 18.3989 -55.9187 0.224199 6.33755 -0.0124121 46.5192 0.731041 5.73654 5.95589 12.9641 -36.914 0.0 0.0 0.0 -18.0858 29.0224 -3.16692 -7.48557 0.235051 1.12395 27.6544 -30.108 -4.51163 -3.6785 0.0 0.0 -0.0 0.0 -0.0 34.9342 21.9294 -12.9009 -13.5398 -0.316655 -2.04891 -6.21465 -9.78937 -0.921328 4.05711 -0.0 -0.0 0.0 0.0 0.0 
1313.44195463 700.516 -1495.32756205 -7.27184272338 78.2720344531 10.8276413864 -0.808217 -0.319096 -2.28125 -0.805339 -0.173327 -2.29692 -0.796274 0.345121 -2.27746 -0.803512 -0.0187932 -2.30337 -16.3716 3.83339 6.22149 -16.2754 3.80169 7.18974 -0.0 0.0 -0.0 6.19796 -2.63877 11.9603 2.4667 -24.566 58.6234 2.73391 -53.5486 1.37965 27.3536 0.140536 -3.45837 -0.848968 0.0602303 -5.65201 -0.0 0.0 -0.0 9.00276 -6.89218 -17.2551 -26.0724 18.4927 -56.4525 0.212608 6.01237 -0.0111653 47.2038 0.775983 5.81177 5.81404 12.178 -36.2204 0.0 0.0 0.0 -17.8424 27.5314 -3.8936 -8.77853 0.260682 1.3207 24.795 -30.2124 -4.12929 -5.70803 0.0 0.0 -0.0 0.0 -0.0 34.3449 21.7772 -13.3586 -15.0281 -0.321717 -2.27719 -5.72115 -16.641 -0.855663 4.85549 -0.0 -0.0 0.0 0.0 0.0 
1268.50605917 707.855 -1508.545443 -8.50833749878 80.4061264307 12.9004549255 -0.894129 -0.0750404 -2.45632 -0.890775 0.0813655 -2.45612 -0.892156 0.633202 -2.37453 -0.899937 0.25036 -2.44468 -12.9086 4.0764 6.88877 -12.7824 3.4146 7.77854 -0.0 0.0 -0.0 5.24765 -2.44397 10.0644 -1.57964 -22.3642 60.6364 2.46095 -50.6305 1.16423 26.8838 0.15211 -3.39947 -0.911405 4.19562 -4.24986 -0.0 0.0 -0.0 9.49613 -4.0064 -18.4085 -22.711 19.3499 -56.6454 0.19929 5.63824 -0.00981353 47.0642 0.766741 5.79646 3.83968 0.715904 -26.3404 0.0 0.0 0.0 -16.6481 23.7172 -4.12714 -14.4912 0.320575 2.19484 15.8105 -29.6361 -2.7546 -7.26619 0.0 0.0 -0.0 0.0 -0.0 30.7598 22.1671 -16.0332 -15.473 -0.322079 -2.34545 3.56174 -15.9408 0.52117 7.88762 -0.0 -0.0 0.0 0.0 0.0 
1269.15295517 707.855 -1510.49224119 -7.65778773726 79.3362322929 12.0364775093 -0.894129 -0.0750404 -2.45632 -0.890775 0.0813655 -2.45612 -0.892156 0.633202 -2.37453 -0.899937 0.25036 -2.44468 -12.9086 4.0764 6.88877 -12.7824 3.4146 7.77854 -0.0 0.0 -0.0 5.24765 -2.44397 10.0644 -1.57964 -22.3642 60.6364 2.46095 -50.6305 1.16423 26.8838 0.15211 -3.39947 -0.911405 4.19562 -4.24986 -0.0 0.0 -0.0 9.49613 -4.0064 -18.4085 -22.711 19.3499 -56.6454 0.19929 5.63824 -0.00981353 47.0642 0.766741 5.79646 3.83968 0.715904 -26.3404 0.0 0.0 0.0 -16.6481 23.7172 -4.12714 -14.4912 0.320575 2.19484 15.8105 -29.6361 -2.7546 -7.26619 0.0 0.0 -0.0 0.0 -0.0 30.7598 22.1671 -16.0332 -15.473 -0.322079 -2.34545 3.56174 -15.9408 0.52117 7.88762 -0.0 -0.0 0.0 0.0 0.0 
1230.27951984 714.841 -1520.62430718 -5.56185443501 81.7741331194 11.192490514 -1.06528 -0.0414842 -2.491 -1.06184 0.117059 -2.48859 -1.06468 0.682561 -2.39607 -1.07257 0.295702 -2.47374 -11.3211 4.13377 6.50879 -11.2088 3.55254 7.3911 -0.0 0.0 -0.0 4.45583 -0.885279 8.56287 -4.78444 -21.2741 62.2825 2.16496 -46.9964 0.941362 23.4155 0.222531 -2.96209 -0.9436 10.387 -1.7331 -0.0 0.0 -0.0 9.55591 -2.22006 -18.6341 -19.2786 21.3322 -58.6781 0.191179 5.41016 -0.00903275 46.7718 0.747519 5.76436 2.17537 -9.54589 -18.2693 0.0 0.0 0.0 -11.1205 16.8995 -7.38656 -26.1763 0.171428 3.97855 12.1503 -20.4197 -1.94344 -10.5704 0.0 0.0 -0.0 0.0 -0.0 27.5055 22.509 -17.9729 -15.0044 -0.321683 -2.27356 8.9973 -8.23135 1.28327 8.40552 -0.0 -0.0 0.0 0.0 0.0 
1205.98681867 715.338 -1525.11036429 -8.23582750338 81.6733367995 14.0365775552 -1.01463 -0.108188 -2.43438 -1.01133 0.0468909 -2.43633 -1.01111 0.600028 -2.3618 -1.01882 0.219611 -2.42687 -8.93894 5.14384 7.27393 -8.79926 4.59405 8.332 -0.0 0.0 -0.0 4.32096 0.619028 8.36613 -6.30659 -19.6257 63.2399 1.88605 -43.0501 0.743946 22.7565 0.232909 -2.87856 -0.86645 9.80501 -1.49426 -0.0 0.0 -0.0 9.77736 -0.559827 -19.1698 -16.7454 21.4951 -59.2067 0.191996 5.43314 -0.00910999 46.4631 0.727396 5.73035 1.59912 -12.9958 -15.6074 0.0 0.0 0.0 -10.9778 11.7216 -6.78333 -30.1654 0.0376942 4.57603 18.3402 -23.8015 -2.94364 -12.8069 0.0 0.0 -0.0 0.0 -0.0 26.2313 22.6547 -18.6402 -15.1216 -0.321838 -2.29155 13.7401 -6.90087 1.92658 9.49357 -0.0 -0.0 0.0 0.0 0.0 
1192.15525367 719.26 -1531.1428508 -2.98060575182 81.8102915167 8.28022057045 -1.18702 -0.219162 -2.25386 -1.1842 -0.0753359 -2.26324 -1.17901 0.447999 -2.21975 -1.18588 0.0919023 -2.26262 -8.61845 5.93217 8.13561 -8.44428 5.41631 9.34827 -0.0 0.0 -0.0 3.94773 2.31712 7.72626 -7.43985 -18.9558 63.7182 1.72437 -40.5006 0.636205 21.2295 0.253264 -2.68457 -0.515899 9.6729 0.69676 -0.0 0.0 -0.0 10.0502 1.00794 -19.8055 -14.0547 21.8735 -59.2778 0.187027 5.29334 -0.00864555 46.0749 0.702356 5.68744 0.669244 -18.0328 -11.4305 0.0 0.0 0.0 -8.62584 5.40258 -6.91647 -35.2351 -0.19178 5.31982 23.8167 -20.944 -3.60393 -15.0802 0.0 0.0 -0.0 0.0 -0.0 23.6508 23.4592 -17.7606 -14.9064 -0.321526 -2.25852 16.4128 -4.04922 2.28045 9.95812 -0.0 -0.0 0.0 0.0 0.0 
1171.99586316 734.713 -1533.20524537 -4.7106932426 81.9810548445 9.90635235233 -1.23901 -0.155732 -1.89821 -1.237 -0.034651 -1.90427 -1.2343 0.406667 -1.86068 -1.23911 0.10776 -1.90153 -9.79231 6.52029 9.37218 -9.56133 5.88348 10.7247 -0.0 0.0 -0.0 3.87494 3.84063 7.65661 -9.10004 -18.2592 64.2599 1.5937 -38.2872 0.553258 18.3132 0.277741 -2.31292 -0.319354 10.3179 2.2265 -0.0 0.0 -0.0 10.5373 2.20374 -20.8798 -11.1736 21.4137 -59.6537 0.194879 5.51422 -0.00938492 46.3986 0.723218 5.72324 -0.122854 -21.4345 -7.88515 0.0 0.0 0.0 -6.70712 0.532607 -6.86821 -38.4265 -0.369712 5.77675 29.8504 -20.604 -4.33319 -16.6879 0.0 0.0 -0.0 0.0 -0.0 21.687 24.2631 -17.4737 -14.8589 -0.321441 -2.25124 16.7551 -1.74286 2.33195 10.2961 -0.0 -0.0 0.0 0.0 0.0 
1125.06601691 745.224 -1524.44910556 12.2619242026 85.1714826696 -7.81000021014 -1.20465 -0.155835 -1.4529 -1.20348 -0.063077 -1.45987 -1.20093 0.275351 -1.43506 -1.2038 0.0452792 -1.46053 -10.9048 5.44692 8.10916 -10.7324 4.91555 9.2683 -0.0 0.0 -0.0 3.79538 7.6377 7.66116 -11.2985 -17.235 65.0379 1.28564 -32.4902 0.374625 12.6057 0.270827 -1.58426 -1.03446 17.0995 0.642567 -0.0 0.0 -0.0 11.2148 4.65327 -22.4294 -7.96713 20.8393 -59.48 0.198492 5.61583 -0.00973539 46.9205 0.757276 5.7807 -1.08215 -22.8138 -2.84046 0.0 0.0 0.0 -1.2546 -2.7689 -7.92364 -41.2307 -0.546912 6.16969 37.3235 -27.897 -5.50997 -18.9679 0.0 0.0 -0.0 0.0 -0.0 16.3842 26.1175 -16.2667 -15.8867 -0.32194 -2.40893 15.6932 -0.341662 2.20019 9.89939 -0.0 -0.0 0.0 0.0 0.0 
1106.9163026 748.879 -1526.48592592 9.31546548822 84.8055529096 -4.8337068724 -0.967364 -0.122687 -1.29371 -0.966434 -0.0401235 -1.2989 -0.964852 0.255301 -1.27419 -0.967114 0.0508794 -1.29852 -11.5238 5.82035 7.80399 -11.3711 5.92844 9.09513 -0.0 0.0 -0.0 3.46765 9.39703 7.1471 -12.1885 -16.9795 66.0163 1.13237 -29.289 0.295908 11.5105 0.261203 -1.44471 -1.11777 18.1025 0.57739 -0.0 0.0 -0.0 11.3711 5.47864 -22.7977 -6.20536 21.5279 -58.9574 0.287991 8.11936 -0.0204399 47.9859 0.828421 5.89704 -0.984106 -19.9907 -2.19925 0.0 0.0 0.0 0.91715 -5.94184 -6.18215 -42.4137 -0.627422 6.33283 36.4479 -26.0866 -5.31286 -18.4553 0.0 0.0 -0.0 0.0 -0.0 14.0041 24.9426 -15.5945 -14.7615 -0.321246 -2.2363 17.511 -0.576903 2.43438 7.75882 -0.0 -0.0 0.0 0.0 0.0 
1092.36004618 752.583 -1528.11340065 14.3201065416 85.5815392058 -9.58550591207 -0.797645 -0.210427 -1.21976 -0.796827 -0.13239 -1.23068 -0.793351 0.146271 -1.22911 -0.795456 -0.0496637 -1.23678 -12.9916 5.10428 6.82098 -12.8793 5.42615 8.01795 -0.0 0.0 -0.0 3.64655 10.3549 7.4928 -13.1416 -16.5256 65.2602 0.97679 -25.8206 0.223905 10.3168 0.247676 -1.29283 -1.08805 18.6904 1.0143 -0.0 0.0 -0.0 11.1126 6.24102 -22.2519 -4.66087 21.4399 -58.6973 0.416234 11.6508 -0.042466 48.2874 0.848951 5.92973 -1.10335 -19.7444 -1.38386 0.0 0.0 0.0 2.00061 -8.44784 -5.49868 -42.4513 -0.630036 6.33798 35.5258 -28.8608 -5.38134 -17.9153 0.0 0.0 -0.0 0.0 -0.0 12.9906 23.0865 -15.0634 -16.3154 -0.321313 -2.4747 17.4081 -0.225112 2.423 7.16065 -0.0 -0.0 0.0 0.0 0.0 
1095.22073187 752.583 -1541.47510097 8.84805556177 82.8837261969 -4.08717946321 -0.797645 -0.210427 -1.21976 -0.796827 -0.13239 -1.23068 -0.793351 0.146271 -1.22911 -0.795456 -0.0496637 -1.23678 -12.9916 5.10428 6.82098 -12.8793 5.42615 8.01795 -0.0 0.0 -0.0 3.64655 10.3549 7.4928 -13.1416 -16.5256 65.2602 0.97679 -25.8206 0.223905 10.3168 0.247676 -1.29283 -1.08805 18.6904 1.0143 -0.0 0.0 -0.0 11.1126 6.24102 -22.2519 -4.66087 21.4399 -58.6973 0.416234 11.6508 -0.042466 48.2874 0.848951 5.92973 -1.10335 -19.7444 -1.38386 0.0 0.0 0.0 2.00061 -8.44784 -5.49868 -42.4513 -0.630036 6.33798 35.5258 -28.8608 -5.38134 -17.9153 0.0 0.0 -0.0 0.0 -0.0 12.9906 23.0865 -15.0634 -16.3154 -0.321313 -2.4747 17.4081 -0.225112 2.423 7.16065 -0.0 -0.0 0.0 0.0 0.0 
